<svg width="47" height="47" viewBox="0 0 47 47" fill="none" xmlns="http://www.w3.org/2000/svg">
<path d="M47 23.5C47 10.5213 36.4787 0 23.5 0C10.5213 0 0 10.5213 0 23.5C0 36.4787 10.5213 47 23.5 47C36.4787 47 47 36.4787 47 23.5Z" fill="#E5ECF5"/>
<path fill-rule="evenodd" clip-rule="evenodd" d="M17.9858 17.9789C17.9858 14.6821 20.668 12 23.9647 12C27.2615 12 29.9436 14.6821 29.9436 17.9789C29.9436 21.2757 27.2615 23.9578 23.9647 23.9578C20.668 23.9578 17.9858 21.2757 17.9858 17.9789ZM25.2935 25.2865C27.5969 25.2865 29.7669 26.2018 31.4038 27.8639C33.0326 29.5178 33.9297 31.7009 33.9297 34.0113C33.9297 34.3782 33.6322 34.6756 33.2654 34.6756H14.6643C14.2974 34.6756 14 34.3782 14 34.0113C14 31.7009 14.8971 29.5178 16.5259 27.8639C18.1628 26.2018 20.3329 25.2865 22.6362 25.2865H25.2935Z" fill="#7D8085"/>
</svg>
