<svg width="30" height="30" viewBox="0 0 30 30" fill="none" xmlns="http://www.w3.org/2000/svg">
<circle cx="15" cy="15" r="14.5" fill="#0961F5" stroke="white"/>
<path fill-rule="evenodd" clip-rule="evenodd" d="M7.94116 23.3826C7.94116 23.1389 8.17819 22.9414 8.47057 22.9414H19.7647C20.0571 22.9414 20.2941 23.1389 20.2941 23.3826C20.2941 23.6262 20.0571 23.8238 19.7647 23.8238H8.47057C8.17819 23.8238 7.94116 23.6262 7.94116 23.3826Z" fill="white"/>
<path d="M14.5765 17.5847L14.5765 17.5846L19.7971 12.364C19.0866 12.0683 18.2451 11.5825 17.4492 10.7867C16.6531 9.99063 16.1673 9.14893 15.8716 8.43833L10.6509 13.659L10.6509 13.6591C10.2435 14.0664 10.0398 14.2702 9.86462 14.4948C9.65796 14.7597 9.48079 15.0464 9.33623 15.3497C9.21368 15.6069 9.12258 15.8802 8.94038 16.4268L7.9796 19.3091C7.88993 19.5781 7.95994 19.8746 8.16043 20.0751C8.36092 20.2756 8.65748 20.3456 8.92646 20.256L11.8088 19.2952C12.3554 19.113 12.6287 19.0219 12.8859 18.8993C13.1892 18.7548 13.4759 18.5776 13.7408 18.3709C13.9654 18.1958 14.1691 17.992 14.5765 17.5847Z" fill="white"/>
<path d="M21.2458 10.9154C22.3298 9.83136 22.3298 8.0738 21.2458 6.98978C20.1618 5.90575 18.4042 5.90575 17.3202 6.98978L16.694 7.61592C16.7026 7.64181 16.7115 7.66806 16.7207 7.69466C16.9502 8.35617 17.3833 9.22335 18.1979 10.0379C19.0125 10.8525 19.8796 11.2856 20.5411 11.5151C20.5676 11.5243 20.5937 11.5331 20.6195 11.5416L21.2458 10.9154Z" fill="white"/>
</svg>
